<svg width="30" height="30" viewBox="0 0 30 30" fill="none" xmlns="http://www.w3.org/2000/svg">
<path d="M27.1875 22.5H2.8125C1.77703 22.5 0.9375 21.6605 0.9375 20.625V5.625C0.9375 4.58953 1.77703 3.75 2.8125 3.75H27.1875C28.223 3.75 29.0625 4.58953 29.0625 5.625V20.625C29.0625 21.6605 28.223 22.5 27.1875 22.5Z" fill="#C7E2FC"/>
<path d="M26.7914 3.75H2.8125C1.77703 3.75 0.9375 4.58953 0.9375 5.625V14.5598C3.72375 16.5717 7.52531 17.8125 11.7188 17.8125C20.2617 17.8125 27.1875 12.6708 27.1875 6.32812C27.1875 5.44125 27.0473 4.57922 26.7914 3.75Z" fill="#EBF7FE"/>
<path d="M21.0938 7.5H22.5C23.5355 7.5 24.375 8.33953 24.375 9.375V16.875C24.375 17.9105 23.5355 18.75 22.5 18.75H7.5C6.46453 18.75 5.625 17.9105 5.625 16.875V9.375C5.625 8.33953 6.46453 7.5 7.5 7.5H16.4062H21.0938Z" fill="#E47C6E"/>
<path d="M20.625 26.25H9.375V25.3125C9.375 24.7945 9.79453 24.375 10.3125 24.375H19.6875C20.2055 24.375 20.625 24.7945 20.625 25.3125V26.25Z" fill="#C7E2FC"/>
<path d="M13.125 22.5H17.3438V24.375H13.125V22.5Z" fill="#8892A0"/>
<path d="M18.75 13.125L11.25 16.875V9.375L18.75 13.125Z" fill="white"/>
<path d="M19.6875 5.15625C19.4288 5.15625 19.2188 5.36625 19.2188 5.625V6.64875C19.0716 6.59625 18.915 6.5625 18.75 6.5625C17.9747 6.5625 17.3438 7.19344 17.3438 7.96875C17.3438 8.74406 17.9747 9.375 18.75 9.375C19.5253 9.375 20.1562 8.74406 20.1562 7.96875V6.09375H21.0938V5.15625H19.6875ZM18.75 8.4375C18.4917 8.4375 18.2812 8.22703 18.2812 7.96875C18.2812 7.71047 18.4917 7.5 18.75 7.5C19.0083 7.5 19.2188 7.71047 19.2188 7.96875C19.2188 8.22703 19.0083 8.4375 18.75 8.4375Z" fill="#4D5D7A"/>
</svg>
