<svg width="30" height="30" viewBox="0 0 30 30" fill="none" xmlns="http://www.w3.org/2000/svg">
<g clip-path="url(#clip0_864_2711)">
<path d="M25.7812 0.9375H4.21875C2.40657 0.9375 0.9375 2.40657 0.9375 4.21875V25.7812C0.9375 27.5934 2.40657 29.0625 4.21875 29.0625H25.7812C27.5934 29.0625 29.0625 27.5934 29.0625 25.7812V4.21875C29.0625 2.40657 27.5934 0.9375 25.7812 0.9375Z" fill="#E2E7F6"/>
<path d="M0.9375 4.21875V24.8438H22.5C23.3702 24.8438 24.2048 24.498 24.8202 23.8827C25.4355 23.2673 25.7812 22.4327 25.7812 21.5625V0.9375H4.21875C3.34851 0.9375 2.51391 1.2832 1.89856 1.89856C1.2832 2.51391 0.9375 3.34851 0.9375 4.21875Z" fill="#F2F2F2"/>
<path d="M6.09375 22.9688V14.2542L15 6.5625L23.9062 14.2542V22.9688H6.09375Z" fill="#93BEE5"/>
<path d="M20.625 14.2542L13.3594 7.97949L6.09375 14.2542V22.9687H20.625V14.2542Z" fill="#A5D1F2"/>
<path d="M24.375 11.5556L20.625 8.295V5.15625H24.375V11.5556Z" fill="#4C6CB5"/>
<path d="M26.7188 13.5938L16.6448 4.83375C16.1886 4.43714 15.6045 4.21873 15 4.21875C14.3955 4.21873 13.8114 4.43714 13.3552 4.83375L3.28125 13.5938L4.6875 15.4688L15 6.5625L25.3125 15.4688L26.7188 13.5938Z" fill="#3B5892"/>
<path d="M25.3125 22.9688H4.6875C4.16973 22.9688 3.75 23.3885 3.75 23.9062V24.8438C3.75 25.3615 4.16973 25.7812 4.6875 25.7812H25.3125C25.8303 25.7812 26.25 25.3615 26.25 24.8438V23.9062C26.25 23.3885 25.8303 22.9688 25.3125 22.9688Z" fill="#3B5892"/>
<path d="M11.7188 22.9688V15.4688H18.2812V22.9688" fill="#5E87CA"/>
<path d="M16.4062 19.6875V15.4688H11.7188V21.0938H15C15.373 21.0938 15.7306 20.9456 15.9944 20.6819C16.2581 20.4181 16.4062 20.0605 16.4062 19.6875Z" fill="#78A0D4"/>
<path d="M15 9.375L10.7812 13.125H19.2188L15 9.375Z" fill="#5E87CA"/>
<path d="M8.90625 15.4688C9.15489 15.4688 9.39335 15.5675 9.56916 15.7433C9.74498 15.9192 9.84375 16.1576 9.84375 16.4062V20.1562H7.96875V16.4062C7.96875 16.1576 8.06752 15.9192 8.24334 15.7433C8.41915 15.5675 8.65761 15.4688 8.90625 15.4688Z" fill="#E2E7F6"/>
<path d="M21.0938 15.4688C21.3424 15.4688 21.5808 15.5675 21.7567 15.7433C21.9325 15.9192 22.0312 16.1576 22.0312 16.4062V20.1562H20.1562V16.4062C20.1562 16.1576 20.255 15.9192 20.4308 15.7433C20.6067 15.5675 20.8451 15.4688 21.0938 15.4688Z" fill="#E2E7F6"/>
<path d="M23.9062 23.9062V22.9688H4.6875C4.43886 22.9688 4.2004 23.0675 4.02459 23.2433C3.84877 23.4192 3.75 23.6576 3.75 23.9062V24.375H23.4375C23.5618 24.375 23.681 24.3256 23.769 24.2377C23.8569 24.1498 23.9062 24.0306 23.9062 23.9062Z" fill="#4C6CB5"/>
</g>
<defs>
<clipPath id="clip0_864_2711">
<rect width="30" height="30" fill="white"/>
</clipPath>
</defs>
</svg>
