<svg width="30" height="30" viewBox="0 0 30 30" fill="none" xmlns="http://www.w3.org/2000/svg">
<g clip-path="url(#clip0_864_2645)">
<path d="M15.9375 7.5V4.21875H17.3438V2.34375H15.9375V0.9375H14.0625V2.34375H12.6562V4.21875H14.0625V7.5" fill="#C8CDED"/>
<path d="M26.25 15.0427V13.5938C26.25 12.9721 26.0031 12.376 25.5635 11.9365C25.124 11.4969 24.5279 11.25 23.9062 11.25H6.09375C5.47215 11.25 4.87601 11.4969 4.43647 11.9365C3.99693 12.376 3.75 12.9721 3.75 13.5938V15.0427L11.25 12.6562H18.75L26.25 15.0427Z" fill="#686868"/>
<path d="M27.6502 17.8317L18.75 15H11.25L2.34984 17.8317L2.34375 17.8125V29.0625H27.6562V17.8125L27.6502 17.8317Z" fill="#CCCCCC"/>
<path d="M18.75 18.9844V9.84375L15 6.09375L11.25 9.84375V18.9844L15 16.875L18.75 18.9844Z" fill="#B5B5B5"/>
<path d="M10.3125 29.0625V21.743L15 19.2188L19.6875 21.743V29.0625H10.3125Z" fill="#B5B5B5"/>
<path d="M21.0938 22.5L15 19.2188L8.90625 22.5L7.5 21.0938L15 16.875L22.5 21.0938L21.0938 22.5Z" fill="#939393"/>
<path d="M11.25 15L0.9375 18.2812V15.9375L11.25 12.6562" fill="#939393"/>
<path d="M18.75 15L29.0625 18.2812V15.9375L18.75 12.6562" fill="#939393"/>
<path d="M15 9.375C15.373 9.375 15.7306 9.52316 15.9944 9.78688C16.2581 10.0506 16.4062 10.4083 16.4062 10.7812V13.125H13.5938V10.7812C13.5938 10.4083 13.7419 10.0506 14.0056 9.78688C14.2694 9.52316 14.627 9.375 15 9.375Z" fill="#F2F2F2"/>
<path d="M12.6562 29.0625V25.7812C12.6562 25.1596 12.9032 24.5635 13.3427 24.124C13.7823 23.6844 14.3784 23.4375 15 23.4375C15.6216 23.4375 16.2177 23.6844 16.6573 24.124C17.0968 24.5635 17.3438 25.1596 17.3438 25.7812V29.0625" fill="#F2F2F2"/>
<path d="M23.9062 23.4375C24.2792 23.4375 24.6369 23.5857 24.9006 23.8494C25.1643 24.1131 25.3125 24.4708 25.3125 24.8438V27.1875H22.5V24.8438C22.5 24.4708 22.6482 24.1131 22.9119 23.8494C23.1756 23.5857 23.5333 23.4375 23.9062 23.4375Z" fill="#F2F2F2"/>
<path d="M6.09375 23.4375C6.46671 23.4375 6.8244 23.5857 7.08812 23.8494C7.35184 24.1131 7.5 24.4708 7.5 24.8438V27.1875H4.6875V24.8438C4.6875 24.4708 4.83566 24.1131 5.09938 23.8494C5.3631 23.5857 5.72079 23.4375 6.09375 23.4375Z" fill="#F2F2F2"/>
</g>
<defs>
<clipPath id="clip0_864_2645">
<rect width="30" height="30" fill="white"/>
</clipPath>
</defs>
</svg>
