<svg width="25" height="25" viewBox="0 0 25 25" fill="none" xmlns="http://www.w3.org/2000/svg">
<circle cx="12.5" cy="12.5" r="12.5" fill="#3D3D3D"/>
<path d="M11.6865 13.4727H13.5869L14.2295 14.2656C14.6055 13.7666 14.8174 13.0146 14.8174 12.0508C14.8174 10.082 13.9424 9.01562 12.4932 9.01562C11.0439 9.01562 10.1689 10.082 10.1689 12.0508C10.1689 14.0195 11.0439 15.0859 12.4932 15.0859C12.6299 15.0859 12.7666 15.0791 12.9033 15.0586L11.6865 13.4727ZM17.1963 12.0508C17.1963 13.7939 16.6152 15.1201 15.665 15.9883L17.1143 17.7793H14.9951L14.2295 16.8496C13.6963 17.041 13.1084 17.1367 12.4932 17.1367C9.82715 17.1367 7.79004 15.3047 7.79004 12.0508C7.79004 8.7832 9.82715 6.96484 12.4932 6.96484C15.1455 6.96484 17.1963 8.7832 17.1963 12.0508Z" fill="white"/>
</svg>
