<svg width="52" height="36" viewBox="0 0 52 36" fill="none" xmlns="http://www.w3.org/2000/svg">
<rect width="52" height="36" rx="10" fill="#EC5655"/>
<path d="M20.906 10.537C20.8149 10.483 20.7111 10.4541 20.6052 10.4531C20.4993 10.4522 20.3951 10.4793 20.3031 10.5318C20.211 10.5842 20.1345 10.66 20.0813 10.7516C20.0281 10.8431 20 10.9471 20 11.053V24.947C20 25.0529 20.0281 25.1569 20.0813 25.2485C20.1345 25.34 20.211 25.4159 20.3031 25.4683C20.3951 25.5207 20.4993 25.5478 20.6052 25.5469C20.7111 25.546 20.8149 25.517 20.906 25.463L32.629 18.516C32.7185 18.4629 32.7927 18.3874 32.8442 18.2969C32.8957 18.2064 32.9228 18.1041 32.9228 18C32.9228 17.8959 32.8957 17.7936 32.8442 17.7031C32.7927 17.6127 32.7185 17.5371 32.629 17.484L20.906 10.537Z" fill="white" stroke="white" stroke-width="1.5" stroke-linecap="round" stroke-linejoin="round"/>
</svg>
