<svg width="157" height="76" viewBox="0 0 157 76" fill="none" xmlns="http://www.w3.org/2000/svg">
<path d="M87.52 50.9065C85.8667 50.9065 84.4667 50.5865 83.32 49.9465C82.1733 49.2932 81.3133 48.4332 80.74 47.3665C80.18 46.2865 79.9 45.1132 79.9 43.8465C79.9 42.5932 80.1933 41.4332 80.78 40.3665C81.38 39.2998 82.2667 38.4465 83.44 37.8065C84.6133 37.1665 86.0267 36.8465 87.68 36.8465C89.2267 36.8465 90.5867 37.1465 91.76 37.7465L91.04 40.2665C90.5467 40.0132 90.0333 39.8132 89.5 39.6665C88.9667 39.5065 88.36 39.4265 87.68 39.4265C86.8133 39.4265 86.06 39.6265 85.42 40.0265C84.7933 40.4132 84.3133 40.9465 83.98 41.6265C83.66 42.2932 83.5 43.0398 83.5 43.8665C83.5 45.1732 83.8467 46.2465 84.54 47.0865C85.2333 47.9132 86.2267 48.3265 87.52 48.3265C88.6267 48.3265 89.82 48.0532 91.1 47.5065L91.78 49.9665C91.2333 50.2465 90.58 50.4732 89.82 50.6465C89.06 50.8198 88.2933 50.9065 87.52 50.9065ZM100.953 39.0665C102.433 39.0665 103.453 39.4598 104.013 40.2465C104.586 41.0332 104.873 42.1665 104.873 43.6465V50.6665H101.393V44.0865C101.393 43.1532 101.279 42.5065 101.053 42.1465C100.839 41.7865 100.419 41.6065 99.7928 41.6065C99.1128 41.6065 98.4195 41.8332 97.7128 42.2865V50.6665H94.2328V34.6665H97.7128V39.9465C98.8195 39.3598 99.8995 39.0665 100.953 39.0665ZM118.503 39.3065V50.6665H115.923L115.563 49.7265C114.257 50.5132 112.997 50.9065 111.783 50.9065C110.303 50.9065 109.277 50.5132 108.703 49.7265C108.143 48.9398 107.863 47.8065 107.863 46.3265V39.3065H111.343V45.8865C111.343 46.8198 111.45 47.4665 111.663 47.8265C111.89 48.1865 112.317 48.3665 112.943 48.3665C113.623 48.3665 114.317 48.1398 115.023 47.6865V39.3065H118.503ZM128.934 42.4265C128.24 42.4265 127.607 42.4665 127.034 42.5465C126.46 42.6265 125.84 42.7865 125.174 43.0265V50.6665H121.694V39.3065H124.274L124.794 40.6465C125.487 40.0865 126.167 39.6865 126.834 39.4465C127.5 39.2065 128.2 39.0865 128.934 39.0865V42.4265ZM136.307 50.9065C134.974 50.9065 133.861 50.6532 132.967 50.1465C132.074 49.6265 131.407 48.9265 130.967 48.0465C130.541 47.1532 130.327 46.1398 130.327 45.0065C130.327 43.9132 130.547 42.9198 130.987 42.0265C131.427 41.1332 132.114 40.4198 133.047 39.8865C133.981 39.3398 135.167 39.0665 136.607 39.0665C137.127 39.0665 137.687 39.1265 138.287 39.2465C138.887 39.3665 139.374 39.5198 139.747 39.7065L139.087 42.1065C138.194 41.7465 137.367 41.5665 136.607 41.5665C135.727 41.5665 135.047 41.8598 134.567 42.4465C134.087 43.0198 133.847 43.8665 133.847 44.9865C133.847 46.1065 134.061 46.9598 134.487 47.5465C134.914 48.1198 135.521 48.4065 136.307 48.4065C136.841 48.4065 137.327 48.3265 137.767 48.1665C138.207 48.0065 138.707 47.7665 139.267 47.4465L140.207 49.6465C139.741 50.0065 139.161 50.3065 138.467 50.5465C137.787 50.7865 137.067 50.9065 136.307 50.9065ZM155.143 37.0665V50.6665H151.543V44.7465H145.963V50.6665H142.363V37.0665H145.963V42.2065H151.543V37.0665H155.143Z" fill="#543826"/>
<path d="M88.344 67.9031C87.728 67.9031 87.2073 67.7637 86.782 67.4851C86.3567 67.1991 86.0377 66.8214 85.825 66.3521C85.6197 65.8827 85.517 65.3584 85.517 64.7791C85.517 64.2071 85.6233 63.6827 85.836 63.2061C86.056 62.7294 86.386 62.3481 86.826 62.0621C87.266 61.7761 87.8123 61.6331 88.465 61.6331C88.8243 61.6331 89.169 61.6954 89.499 61.8201C89.829 61.9374 90.1003 62.1061 90.313 62.3261L89.95 63.0191C89.7667 62.8284 89.543 62.6781 89.279 62.5681C89.015 62.4507 88.7437 62.3921 88.465 62.3921C87.849 62.3921 87.3687 62.6121 87.024 63.0521C86.6867 63.4847 86.518 64.0567 86.518 64.7681C86.518 65.4867 86.6757 66.0624 86.991 66.4951C87.3137 66.9277 87.7647 67.1441 88.344 67.1441C88.7033 67.1441 89.0223 67.0707 89.301 66.9241C89.5797 66.7701 89.8437 66.5611 90.093 66.2971L90.467 66.9241C90.2177 67.2101 89.9097 67.4447 89.543 67.6281C89.1837 67.8114 88.784 67.9031 88.344 67.9031ZM92.3311 60.0161C92.1624 60.0161 92.0157 59.9574 91.8911 59.8401C91.7664 59.7154 91.7041 59.5687 91.7041 59.4001C91.7041 59.2241 91.7664 59.0737 91.8911 58.9491C92.0157 58.8244 92.1624 58.7621 92.3311 58.7621C92.5071 58.7621 92.6574 58.8244 92.7821 58.9491C92.9067 59.0737 92.9691 59.2241 92.9691 59.4001C92.9691 59.5687 92.9067 59.7154 92.7821 59.8401C92.6574 59.9574 92.5071 60.0161 92.3311 60.0161ZM91.8471 61.8311H92.8261V67.7051H91.8471V61.8311ZM98.2715 67.4851C97.8902 67.7271 97.4795 67.8481 97.0395 67.8481C96.4088 67.8481 95.9432 67.6794 95.6425 67.3421C95.3418 66.9974 95.1915 66.5061 95.1915 65.8681V62.5681H94.2565V62.1501L95.2795 61.8641L95.5765 60.4451H96.1705V61.8311H97.9305V62.5681H96.1705V65.7141C96.1705 66.1907 96.2475 66.5391 96.4015 66.7591C96.5555 66.9717 96.8048 67.0781 97.1495 67.0781C97.3182 67.0707 97.4722 67.0451 97.6115 67.0011C97.7582 66.9571 97.9195 66.8874 98.0955 66.7921L98.2715 67.4851ZM104.44 61.8311L101.888 68.5191C101.638 69.1937 101.33 69.6814 100.964 69.9821C100.597 70.2827 100.15 70.4331 99.6216 70.4331C99.3282 70.4331 99.0642 70.3891 98.8296 70.3011L98.9506 69.5311C99.1706 69.5897 99.3722 69.6191 99.5556 69.6191C99.9222 69.6191 100.23 69.5091 100.48 69.2891C100.729 69.0691 100.964 68.6657 101.184 68.0791L101.272 67.8261L98.9506 61.8311H99.9626L101.723 66.5831L103.45 61.8311H104.44ZM110.709 67.9031C110.093 67.9031 109.573 67.7637 109.147 67.4851C108.722 67.2064 108.403 66.8324 108.19 66.3631C107.985 65.8864 107.882 65.3584 107.882 64.7791C107.882 64.1924 107.985 63.6607 108.19 63.1841C108.403 62.7074 108.722 62.3297 109.147 62.0511C109.573 61.7724 110.093 61.6331 110.709 61.6331C111.318 61.6331 111.835 61.7761 112.26 62.0621C112.686 62.3481 113.001 62.7294 113.206 63.2061C113.419 63.6754 113.525 64.1924 113.525 64.7571C113.525 65.3291 113.419 65.8534 113.206 66.3301C113.001 66.8067 112.686 67.1881 112.26 67.4741C111.835 67.7601 111.318 67.9031 110.709 67.9031ZM110.698 67.1441C111.285 67.1441 111.736 66.9314 112.051 66.5061C112.367 66.0734 112.524 65.4941 112.524 64.7681C112.524 64.0494 112.367 63.4737 112.051 63.0411C111.736 62.6084 111.285 62.3921 110.698 62.3921C110.112 62.3921 109.661 62.6084 109.345 63.0411C109.037 63.4737 108.883 64.0494 108.883 64.7681C108.883 65.4941 109.037 66.0734 109.345 66.5061C109.661 66.9314 110.112 67.1441 110.698 67.1441ZM116.588 61.8311H118.348V62.5681H116.588V67.7051H115.609V62.5681H114.674V62.1501L115.609 61.8861V61.2921C115.609 60.5147 115.774 59.9207 116.104 59.5101C116.441 59.0921 116.958 58.8831 117.655 58.8831C117.875 58.8831 118.113 58.9124 118.37 58.9711L118.249 59.7081C118.066 59.6714 117.897 59.6531 117.743 59.6531C117.34 59.6531 117.046 59.7887 116.863 60.0601C116.68 60.3314 116.588 60.7494 116.588 61.3141V61.8311ZM127.273 62.5681L125.986 62.4471C126.206 62.7771 126.316 63.1474 126.316 63.5581C126.316 63.9101 126.235 64.2364 126.074 64.5371C125.912 64.8304 125.67 65.0687 125.348 65.2521C125.025 65.4281 124.629 65.5161 124.16 65.5161C123.932 65.5161 123.698 65.4904 123.456 65.4391C123.243 65.6151 123.089 65.7654 122.994 65.8901C122.906 66.0074 122.862 66.1357 122.862 66.2751C122.862 66.4364 122.92 66.5537 123.038 66.6271C123.155 66.6931 123.346 66.7261 123.61 66.7261H125.48C126.015 66.7261 126.429 66.8544 126.723 67.1111C127.023 67.3677 127.174 67.7124 127.174 68.1451C127.174 68.5631 127.031 68.9444 126.745 69.2891C126.459 69.6411 126.066 69.9161 125.568 70.1141C125.069 70.3121 124.512 70.4111 123.896 70.4111C123.089 70.4111 122.506 70.2644 122.147 69.9711C121.795 69.6851 121.619 69.3221 121.619 68.8821C121.619 68.5814 121.696 68.3174 121.85 68.0901C122.004 67.8627 122.242 67.6244 122.565 67.3751C122.125 67.2064 121.905 66.9057 121.905 66.4731C121.905 66.2531 121.974 66.0441 122.114 65.8461C122.253 65.6407 122.484 65.4097 122.807 65.1531C122.543 64.9844 122.341 64.7607 122.202 64.4821C122.062 64.2034 121.993 63.9027 121.993 63.5801C121.993 63.2281 122.073 62.9054 122.235 62.6121C122.396 62.3114 122.638 62.0731 122.961 61.8971C123.291 61.7211 123.69 61.6331 124.16 61.6331C124.541 61.6331 124.889 61.6991 125.205 61.8311H127.273V62.5681ZM124.149 64.7901C124.515 64.7901 124.805 64.6801 125.018 64.4601C125.238 64.2327 125.348 63.9357 125.348 63.5691C125.348 63.2097 125.241 62.9201 125.029 62.7001C124.816 62.4727 124.523 62.3591 124.149 62.3591C123.782 62.3591 123.492 62.4727 123.28 62.7001C123.067 62.9201 122.961 63.2097 122.961 63.5691C122.961 63.9357 123.067 64.2327 123.28 64.4601C123.492 64.6801 123.782 64.7901 124.149 64.7901ZM126.25 68.2771C126.25 67.7711 125.942 67.5181 125.326 67.5181H123.511H123.379C123.107 67.7381 122.902 67.9507 122.763 68.1561C122.623 68.3614 122.554 68.5814 122.554 68.8161C122.554 69.1167 122.667 69.3331 122.895 69.4651C123.129 69.5971 123.463 69.6631 123.896 69.6631C124.336 69.6631 124.735 69.5934 125.095 69.4541C125.454 69.3221 125.736 69.1461 125.942 68.9261C126.147 68.7134 126.25 68.4971 126.25 68.2771ZM131.459 62.5571C131.107 62.5571 130.77 62.6194 130.447 62.7441C130.132 62.8614 129.776 63.0814 129.38 63.4041V67.7051H128.401V61.8311H129.16L129.336 62.6231C129.696 62.2637 130.044 62.0107 130.381 61.8641C130.726 61.7174 131.085 61.6441 131.459 61.6441V62.5571ZM137.678 67.6941C137.414 67.7894 137.15 67.8407 136.886 67.8481C136.593 67.8481 136.351 67.7894 136.16 67.6721C135.977 67.5547 135.863 67.3494 135.819 67.0561C135.123 67.5914 134.477 67.8591 133.883 67.8591C133.421 67.8591 133.044 67.7271 132.75 67.4631C132.457 67.1917 132.31 66.8544 132.31 66.4511C132.31 66.0771 132.413 65.7691 132.618 65.5271C132.824 65.2777 133.11 65.0724 133.476 64.9111C133.85 64.7497 134.353 64.5774 134.983 64.3941L135.797 64.1631V63.7341C135.797 62.8541 135.464 62.4141 134.796 62.4141C134.43 62.4141 134.092 62.4911 133.784 62.6451C133.476 62.7917 133.128 63.0704 132.739 63.4811L132.332 62.8651C133.154 62.0437 134.037 61.6331 134.983 61.6331C135.614 61.6331 136.069 61.7981 136.347 62.1281C136.633 62.4581 136.776 63.0081 136.776 63.7781V66.6491C136.776 66.8104 136.806 66.9277 136.864 67.0011C136.923 67.0671 137.015 67.1001 137.139 67.1001C137.249 67.1001 137.407 67.0634 137.612 66.9901L137.678 67.6941ZM133.289 66.3741C133.289 66.6234 133.363 66.8067 133.509 66.9241C133.656 67.0414 133.85 67.1001 134.092 67.1001C134.342 67.1001 134.598 67.0377 134.862 66.9131C135.134 66.7884 135.445 66.5977 135.797 66.3411V64.8121L135.17 64.9991C134.474 65.2117 133.986 65.4171 133.707 65.6151C133.429 65.8131 133.289 66.0661 133.289 66.3741ZM141.228 67.9031C140.612 67.9031 140.091 67.7637 139.666 67.4851C139.24 67.1991 138.921 66.8214 138.709 66.3521C138.503 65.8827 138.401 65.3584 138.401 64.7791C138.401 64.2071 138.507 63.6827 138.72 63.2061C138.94 62.7294 139.27 62.3481 139.71 62.0621C140.15 61.7761 140.696 61.6331 141.349 61.6331C141.708 61.6331 142.053 61.6954 142.383 61.8201C142.713 61.9374 142.984 62.1061 143.197 62.3261L142.834 63.0191C142.65 62.8284 142.427 62.6781 142.163 62.5681C141.899 62.4507 141.627 62.3921 141.349 62.3921C140.733 62.3921 140.252 62.6121 139.908 63.0521C139.57 63.4847 139.402 64.0567 139.402 64.7681C139.402 65.4867 139.559 66.0624 139.875 66.4951C140.197 66.9277 140.648 67.1441 141.228 67.1441C141.587 67.1441 141.906 67.0707 142.185 66.9241C142.463 66.7701 142.727 66.5611 142.977 66.2971L143.351 66.9241C143.101 67.2101 142.793 67.4447 142.427 67.6281C142.067 67.8114 141.668 67.9031 141.228 67.9031ZM146.975 67.1441C147.342 67.1441 147.672 67.0634 147.965 66.9021C148.258 66.7407 148.541 66.5207 148.812 66.2421L149.186 66.8581C148.893 67.1881 148.563 67.4447 148.196 67.6281C147.837 67.8114 147.426 67.9031 146.964 67.9031C146.348 67.9031 145.827 67.7637 145.402 67.4851C144.984 67.1991 144.669 66.8214 144.456 66.3521C144.251 65.8754 144.148 65.3511 144.148 64.7791C144.148 64.1924 144.251 63.6607 144.456 63.1841C144.669 62.7074 144.988 62.3297 145.413 62.0511C145.838 61.7724 146.355 61.6331 146.964 61.6331C147.389 61.6331 147.771 61.7211 148.108 61.8971C148.453 62.0657 148.72 62.3151 148.911 62.6451C149.102 62.9751 149.197 63.3637 149.197 63.8111C149.197 63.9797 149.171 64.1997 149.12 64.4711H145.149C145.142 64.5371 145.138 64.6324 145.138 64.7571C145.138 65.4831 145.292 66.0624 145.6 66.4951C145.915 66.9277 146.374 67.1441 146.975 67.1441ZM146.931 62.3591C146.498 62.3591 146.139 62.4837 145.853 62.7331C145.574 62.9824 145.376 63.3234 145.259 63.7561H148.229V63.6681C148.229 63.2427 148.101 62.9201 147.844 62.7001C147.595 62.4727 147.29 62.3591 146.931 62.3591Z" fill="#BF845D"/>
<path d="M40.5616 19.2572V21.2921C55.643 24.2683 67.0894 38.1202 67.0894 54.7167C67.0894 60.6847 65.6106 66.2982 63.0114 71.1778L61.0777 69.1592V54.5257L53.0595 46.1558V60.7893L50.491 58.1082V43.4746L42.4728 35.1048V49.7383L38.5094 45.6011V31.9199C38.5094 28.8646 37.5576 25.8996 35.8043 23.465V7.68485H40.561V4.96313H35.8043V0.526367H33.1969V4.96313H28.4397V7.68485H33.1969V23.4696C31.4449 25.9029 30.4912 28.8666 30.4912 31.9199V45.5998L26.5316 49.7331V35.0995L18.5097 43.4733V58.1069L15.9412 60.788V46.1545L7.92294 54.5244V69.1579L5.9892 71.1765C3.39062 66.2975 1.91118 60.684 1.91118 54.7154C1.91118 38.1189 13.3576 24.267 28.439 21.2908V19.2559C12.2955 22.2523 0 37.0134 0 54.7147C0 61.2374 1.66616 67.3578 4.5862 72.6397C5.1019 73.577 5.66022 74.4908 6.26052 75.3725H7.92294H8.62601H9.30652L15.9412 68.4469L18.5097 65.7657L26.5316 57.388L30.4912 53.2548L34.5003 49.0698L38.5094 53.2548L42.4728 57.3919L50.491 65.7657L53.0595 68.4469L59.6947 75.3725H60.3746H61.0777H62.7401C63.3404 74.4908 63.8981 73.577 64.4138 72.6397C67.3338 67.3578 69 61.2374 69 54.7147C69.0006 37.0147 56.7057 22.2576 40.5616 19.2572ZM20.6915 55.8293V49.9247C20.6915 48.385 21.3376 46.8969 22.5225 45.7234C23.7037 46.8962 24.3535 48.3843 24.3535 49.9247V52.0074L20.6915 55.8293ZM44.6515 49.9247C44.6515 48.385 45.2976 46.8969 46.4825 45.7234C47.6637 46.8962 48.3135 48.3843 48.3135 49.9247V55.8332L44.6521 52.0113L44.6515 49.9247Z" fill="#BF845D"/>
<path d="M34.5003 60.7744C32.1374 63.1187 30.839 66.0981 30.839 69.179V75.3726H38.161V69.179C38.1616 66.0988 36.8639 63.1187 34.5003 60.7744Z" fill="#BF845D"/>
</svg>
