<svg width="40" height="40" viewBox="0 0 40 40" fill="none" xmlns="http://www.w3.org/2000/svg">
<rect width="40" height="40" rx="20" fill="black"/>
<path d="M27.7338 25.3531C27.444 26.0228 27.1009 26.6392 26.7034 27.2059C26.1615 27.9784 25.7178 28.5132 25.3759 28.8101C24.8459 29.2976 24.278 29.5472 23.6699 29.5614C23.2334 29.5614 22.7069 29.4372 22.094 29.1852C21.4792 28.9344 20.9141 28.8101 20.3975 28.8101C19.8556 28.8101 19.2745 28.9344 18.6529 29.1852C18.0304 29.4372 17.5288 29.5685 17.1454 29.5815C16.5623 29.6064 15.981 29.3496 15.4008 28.8101C15.0305 28.4872 14.5673 27.9335 14.0125 27.1491C13.4171 26.3114 12.9277 25.3401 12.5442 24.2328C12.1336 23.0367 11.9277 21.8784 11.9277 20.7571C11.9277 19.4726 12.2053 18.3647 12.7612 17.4364C13.1981 16.6907 13.7794 16.1024 14.5069 15.6706C15.2344 15.2388 16.0204 15.0187 16.8669 15.0047C17.3301 15.0047 17.9375 15.1479 18.6923 15.4295C19.445 15.712 19.9283 15.8553 20.1402 15.8553C20.2986 15.8553 20.8355 15.6878 21.7456 15.3538C22.6063 15.044 23.3327 14.9158 23.9278 14.9663C25.5404 15.0965 26.7519 15.7321 27.5576 16.8774C26.1154 17.7512 25.402 18.9751 25.4162 20.5452C25.4292 21.7681 25.8728 22.7858 26.7448 23.5939C27.1399 23.9689 27.5812 24.2588 28.0722 24.4646C27.9657 24.7734 27.8533 25.0692 27.7338 25.3531V25.3531ZM24.0355 10.7999C24.0355 11.7585 23.6853 12.6535 22.9873 13.4819C22.1449 14.4667 21.126 15.0358 20.0211 14.946C20.0071 14.831 19.9989 14.7099 19.9989 14.5828C19.9989 13.6626 20.3995 12.6777 21.1109 11.8725C21.4661 11.4648 21.9178 11.1259 22.4655 10.8554C23.0121 10.589 23.5291 10.4417 24.0154 10.4165C24.0296 10.5446 24.0355 10.6728 24.0355 10.7999V10.7999Z" fill="white"/>
</svg>
