<svg width="30" height="30" viewBox="0 0 30 30" fill="none" xmlns="http://www.w3.org/2000/svg">
<g clip-path="url(#clip0_864_2584)">
<path d="M8.90625 26.25L7.49953 29.0625H0.9375V27.6558L2.8125 23.9062L8.90625 26.25Z" fill="#5E87CA"/>
<path d="M8.90625 26.25L2.8125 23.9062L3.75 22.0312L9.84375 24.375L8.90625 26.25Z" fill="#CCCCCC"/>
<path d="M21.0938 26.25L22.5005 29.0625H29.0625V27.6558L27.1875 23.9062L21.0938 26.25Z" fill="#5E87CA"/>
<path d="M21.0938 26.25L27.1875 23.9062L26.25 22.0312L20.1562 24.375L21.0938 26.25Z" fill="#CCCCCC"/>
<path d="M8.84016 23.9888L4.73438 22.4091L6.09375 19.6875V14.4938C6.0938 13.3129 6.54193 12.1761 7.34766 11.3128L12.832 5.91188C13.019 5.72759 13.2712 5.6245 13.5337 5.625C13.7983 5.625 14.052 5.7301 14.2391 5.91716C14.4262 6.10423 14.5312 6.35795 14.5312 6.6225V6.64547C14.5313 6.89367 14.4389 7.13299 14.272 7.31672L9.84375 12.1875V16.875L11.4375 12.8906C11.5205 12.6832 11.6637 12.5054 11.8487 12.3801C12.0337 12.2548 12.2519 12.1877 12.4753 12.1875C12.7718 12.1876 13.0562 12.3054 13.2659 12.5151C13.4756 12.7247 13.5935 13.009 13.5938 13.3055L12.6562 19.2188L8.84016 23.9888Z" fill="#FBE1CA"/>
<path d="M12.5578 12.1903L14.8594 9.62813C14.9517 9.46227 15.0001 9.27559 15 9.08578C15 8.78953 14.8823 8.5054 14.6728 8.29592C14.4633 8.08644 14.1792 7.96875 13.883 7.96875H13.6791L9.84375 12.1875V16.875L11.4375 12.8906C11.5205 12.6832 11.6637 12.5054 11.8487 12.3801C12.0337 12.2548 12.2519 12.1877 12.4753 12.1875C12.503 12.1875 12.5306 12.1875 12.5578 12.1903Z" fill="#FFCEA9"/>
<path d="M21.2053 23.9888L25.3125 22.4091L23.9531 19.6875V14.4938C23.9531 13.3129 23.5049 12.1761 22.6992 11.3128L17.2148 5.91188C17.0275 5.72725 16.7748 5.62414 16.5117 5.62501C16.2474 5.62538 15.9941 5.73064 15.8073 5.91766C15.6205 6.10469 15.5156 6.3582 15.5156 6.62251V6.64547C15.5156 6.89367 15.608 7.13299 15.7748 7.31672L20.2031 12.1875V16.875L18.6094 12.8906C18.5264 12.6829 18.383 12.5048 18.1978 12.3794C18.0125 12.2541 17.7939 12.1872 17.5702 12.1875C17.2738 12.1878 16.9897 12.3056 16.7802 12.5153C16.5708 12.7249 16.4531 13.0091 16.4531 13.3055L17.3906 19.2188L21.2067 23.9888H21.2053Z" fill="#FBE1CA"/>
<path d="M17.4872 12.1903L15.1875 9.62813C15.0952 9.46227 15.0468 9.27559 15.0469 9.08578C15.0469 8.78985 15.1643 8.50601 15.3734 8.29658C15.5825 8.08715 15.8661 7.96925 16.162 7.96875H16.3664L20.2031 12.1875V16.875L18.6094 12.8906C18.5264 12.6829 18.383 12.5048 18.1978 12.3794C18.0125 12.2541 17.7939 12.1872 17.5702 12.1875C17.542 12.1875 17.5148 12.1875 17.4872 12.1903Z" fill="#FFCEA9"/>
<path d="M27.6562 4.6875C26.6617 4.6875 25.7079 5.08259 25.0046 5.78585C24.3013 6.48911 23.9062 7.44294 23.9062 8.4375C23.9062 7.44294 23.5112 6.48911 22.8079 5.78585C22.1046 5.08259 21.1508 4.6875 20.1562 4.6875C21.1508 4.6875 22.1046 4.29241 22.8079 3.58915C23.5112 2.88589 23.9062 1.93206 23.9062 0.9375C23.9062 1.93206 24.3013 2.88589 25.0046 3.58915C25.7079 4.29241 26.6617 4.6875 27.6562 4.6875Z" fill="#FCE797"/>
<path d="M9.84375 4.6875C8.84919 4.6875 7.89536 5.08259 7.1921 5.78585C6.48884 6.48911 6.09375 7.44294 6.09375 8.4375C6.09375 7.44294 5.69866 6.48911 4.9954 5.78585C4.29214 5.08259 3.33831 4.6875 2.34375 4.6875C3.33831 4.6875 4.29214 4.29241 4.9954 3.58915C5.69866 2.88589 6.09375 1.93206 6.09375 0.9375C6.09375 1.93206 6.48884 2.88589 7.1921 3.58915C7.89536 4.29241 8.84919 4.6875 9.84375 4.6875Z" fill="#FCE797"/>
</g>
<defs>
<clipPath id="clip0_864_2584">
<rect width="30" height="30" fill="white"/>
</clipPath>
</defs>
</svg>
