<svg width="30" height="30" viewBox="0 0 30 30" fill="none" xmlns="http://www.w3.org/2000/svg">
<g clip-path="url(#clip0_864_2599)">
<path d="M0.9375 5.15625H23.4375V18.75H0.9375V5.15625Z" fill="#4C6CB5"/>
<path d="M12.1875 11.25C11.3487 11.2495 10.5226 11.0444 9.7809 10.6526C9.03919 10.2608 8.4042 9.69401 7.93093 9.00143C7.45767 8.30885 7.1604 7.51132 7.06489 6.67793C6.96938 5.84455 7.07851 5.00045 7.38281 4.21875H2.8125V16.875H10.7812C11.1542 16.875 11.5119 17.0232 11.7756 17.2869C12.0393 17.5506 12.1875 17.9083 12.1875 18.2812V11.25Z" fill="#E2E7F6"/>
<path d="M12.1875 11.25C13.0263 11.2495 13.8524 11.0444 14.5941 10.6526C15.3358 10.2608 15.9708 9.69401 16.4441 9.00143C16.9173 8.30885 17.2146 7.51132 17.3101 6.67793C17.4056 5.84455 17.2965 5.00045 16.9922 4.21875H21.5625V16.875H13.5938C13.2208 16.875 12.8631 17.0232 12.5994 17.2869C12.3357 17.5506 12.1875 17.9083 12.1875 18.2812V11.25Z" fill="#C8CDED"/>
<path d="M13.5938 12.1875H20.1562V13.125H13.5938V12.1875Z" fill="#E2E7F6"/>
<path d="M13.5938 10.3125H20.1562V11.25H13.5938V10.3125Z" fill="#E2E7F6"/>
<path d="M15.5714 8.4375H20.1563V9.375H15.5714V8.4375Z" fill="#E2E7F6"/>
<path d="M13.5938 14.0625H20.1562V15H13.5938V14.0625Z" fill="#E2E7F6"/>
<path d="M4.21875 12.1875H10.7812V13.125H4.21875V12.1875Z" fill="#C8CDED"/>
<path d="M4.21875 10.3125H10.7812V11.25H4.21875V10.3125Z" fill="#C8CDED"/>
<path d="M4.21875 8.4375H8.80359V9.375H4.21875V8.4375Z" fill="#C8CDED"/>
<path d="M4.21875 14.0625H10.7812V15H4.21875V14.0625Z" fill="#C8CDED"/>
<path d="M20.625 21.5625H29.0625V29.0625H20.625V21.5625Z" fill="#474747"/>
<path d="M27.6562 27.1875V21.5625H20.625V28.125H26.7188C26.9674 28.125 27.2058 28.0262 27.3817 27.8504C27.5575 27.6746 27.6562 27.4361 27.6562 27.1875Z" fill="#686868"/>
<path d="M20.625 21.5625H23.4375V29.0625H20.625V21.5625Z" fill="#CCCCCC"/>
<path d="M22.0312 27.6562V21.5625H20.625V28.125H21.5625C21.6868 28.125 21.806 28.0756 21.894 27.9877C21.9819 27.8998 22.0312 27.7806 22.0312 27.6562Z" fill="#D8D8D8"/>
<path d="M20.625 27.6562L11.25 27.1875C10.8074 27.1876 10.3697 27.0945 9.96532 26.9144C9.56097 26.7344 9.19902 26.4712 8.90297 26.1422L5.95594 22.868C5.74294 22.631 5.62507 22.3236 5.625 22.005V21.9145C5.625 21.5725 5.76086 21.2445 6.00269 21.0027C6.24453 20.7609 6.57253 20.625 6.91453 20.625C7.0984 20.625 7.28015 20.6643 7.44759 20.7403C7.61502 20.8163 7.76427 20.9272 7.88531 21.0656L10.7841 23.5116L10.7812 23.4375C10.7812 23.1889 10.88 22.9504 11.0558 22.7746C11.2317 22.5988 11.4701 22.5 11.7188 22.5H15C15.1409 22.2183 15.3574 21.9814 15.6253 21.8158C15.8932 21.6502 16.2019 21.5625 16.5169 21.5625H17.1234C18.165 21.5625 19.1638 21.9763 19.9003 22.7128C20.1664 23.0952 20.4084 23.4938 20.625 23.9062V27.6562Z" fill="#FBE1CA"/>
<path d="M15 24.8438H11.7188C11.3458 24.8438 10.9881 24.6956 10.7244 24.4319C10.4607 24.1681 10.3125 23.8105 10.3125 23.4375H11.25C11.25 23.5618 11.2994 23.681 11.3873 23.769C11.4752 23.8569 11.5944 23.9062 11.7188 23.9062H15V24.8438Z" fill="#F2B9A1"/>
<path d="M12.1875 11.25C15.0352 11.25 17.3438 8.94147 17.3438 6.09375C17.3438 3.24603 15.0352 0.9375 12.1875 0.9375C9.33978 0.9375 7.03125 3.24603 7.03125 6.09375C7.03125 8.94147 9.33978 11.25 12.1875 11.25Z" fill="#5E87CA"/>
<path d="M16.4063 5.62478C16.4062 4.75679 16.1866 3.90291 15.768 3.14254C15.3494 2.38216 14.7453 1.73999 14.0119 1.27572C12.8186 0.822025 11.4994 0.827606 10.31 1.29138C9.12055 1.75515 8.14574 2.64407 7.57454 3.78578C7.00334 4.92748 6.87644 6.24062 7.21846 7.47057C7.56048 8.70053 8.34704 9.75965 9.42563 10.4426C10.2056 10.7404 11.0463 10.8439 11.8753 10.7442C12.7042 10.6445 13.4964 10.3445 14.1835 9.87031C14.8707 9.39608 15.4321 8.76176 15.8193 8.02211C16.2066 7.28245 16.408 6.45967 16.4063 5.62478Z" fill="#78A0D4"/>
<path d="M14.5312 4.21875H13.125V2.8125H11.25V4.21875H9.84375V6.09375H11.25V9.375H13.125V6.09375H14.5312V4.21875Z" fill="#F2F2F2"/>
</g>
<defs>
<clipPath id="clip0_864_2599">
<rect width="30" height="30" fill="white"/>
</clipPath>
</defs>
</svg>
