<svg width="30" height="30" viewBox="0 0 30 30" fill="none" xmlns="http://www.w3.org/2000/svg">
<path d="M13.125 14.5312V16.4062C13.125 16.6549 13.0262 16.8933 12.8504 17.0692C12.6746 17.245 12.4361 17.3438 12.1875 17.3438H7.96875C7.22283 17.3438 6.50746 17.6401 5.98001 18.1675C5.45257 18.695 5.15625 19.4103 5.15625 20.1562V29.0625H24.8438V20.1562C24.8438 19.4103 24.5474 18.695 24.02 18.1675C23.4925 17.6401 22.7772 17.3438 22.0312 17.3438H17.8125C17.5639 17.3438 17.3254 17.245 17.1496 17.0692C16.9738 16.8933 16.875 16.6549 16.875 16.4062V14.5312" fill="#474747"/>
<path d="M16.4062 24.8438H15.4688V22.9688H14.5312V24.8438H13.5938V25.7812H14.5312V29.0625H15.4688V25.7812H16.4062V24.8438Z" fill="white"/>
<path d="M22.4972 17.3822L21.5864 7.01109C21.4518 5.3566 20.6996 3.81332 19.4793 2.68802C18.259 1.56272 16.66 0.937806 15 0.9375C13.34 0.937806 11.741 1.56272 10.5207 2.68802C9.30035 3.81332 8.54816 5.3566 8.41359 7.01109L7.5 17.3827C7.65489 17.3566 7.81169 17.3436 7.96875 17.3438H22.0312L22.4972 17.3822Z" fill="#686868"/>
<path d="M18.2812 17.3438V18.2812C18.2812 19.1515 17.9355 19.9861 17.3202 20.6014C16.7048 21.2168 15.8702 21.5625 15 21.5625C14.1298 21.5625 13.2952 21.2168 12.6798 20.6014C12.0645 19.9861 11.7188 19.1515 11.7188 18.2812V17.3438H9.84375V18.2812C9.84375 18.9584 9.97712 19.6289 10.2362 20.2545C10.4954 20.88 10.8752 21.4485 11.354 21.9273C12.321 22.8943 13.6325 23.4375 15 23.4375C15.6771 23.4375 16.3476 23.3041 16.9732 23.045C17.5988 22.7859 18.1672 22.4061 18.646 21.9273C19.1248 21.4485 19.5046 20.88 19.7638 20.2545C20.0229 19.6289 20.1562 18.9584 20.1562 18.2812V17.3438H18.2812Z" fill="#CCCCCC"/>
<path d="M13.125 13.5938V16.4062C13.125 16.6549 13.0262 16.8933 12.8504 17.0692C12.6746 17.245 12.4361 17.3438 12.1875 17.3438H11.7188V18.2812C11.7188 19.1515 12.0645 19.9861 12.6798 20.6014C13.2952 21.2168 14.1298 21.5625 15 21.5625C15.8702 21.5625 16.7048 21.2168 17.3202 20.6014C17.9355 19.9861 18.2812 19.1515 18.2812 18.2812V17.3438H17.8125C17.5639 17.3438 17.3254 17.245 17.1496 17.0692C16.9738 16.8933 16.875 16.6549 16.875 16.4062V13.5938H13.125Z" fill="#B5B5B5"/>
<path d="M19.6875 8.4375V10.3125C19.6875 11.5557 19.1936 12.748 18.3146 13.6271C17.4355 14.5061 16.2432 15 15 15C13.7568 15 12.5645 14.5061 11.6854 13.6271C10.8064 12.748 10.3125 11.5557 10.3125 10.3125V8.4375H19.6875Z" fill="#FBE1CA"/>
<path d="M19.6875 8.4375H10.3125V6.5625C11.5131 5.36199 13.1414 4.68754 14.8392 4.6875H15.1608C16.8586 4.68754 18.4869 5.36199 19.6875 6.5625V8.4375Z" fill="#CCCCCC"/>
</svg>
