<svg width="30" height="30" viewBox="0 0 30 30" fill="none" xmlns="http://www.w3.org/2000/svg">
<path d="M29.0625 24.8433V5.625H25.7812H4.21875H0.9375V24.8433H29.0625Z" fill="#4D4D4D"/>
<path d="M4.21877 5.625H1.89893C2.13964 10.5538 4.26699 15.2011 7.84032 18.6044C11.4136 22.0076 16.1591 23.906 21.0938 23.9062H29.0625V5.625H4.21877Z" fill="#939292"/>
<path d="M2.8125 9.84375H27.1875V22.9688H2.8125V9.84375Z" fill="#E0DFDE"/>
<path d="M2.8125 10.6125C3.75133 13.5002 5.35981 16.1249 7.50659 18.2723C9.65337 20.4198 12.2776 22.029 15.165 22.9688H27.1875V9.84375H2.8125V10.6125Z" fill="white"/>
<path d="M0.9375 5.625H29.0625V9.84375H0.9375V5.625Z" fill="#C64530"/>
<path d="M4.21875 26.25C6.03093 26.25 7.5 24.7809 7.5 22.9688C7.5 21.1566 6.03093 19.6875 4.21875 19.6875C2.40657 19.6875 0.9375 21.1566 0.9375 22.9688C0.9375 24.7809 2.40657 26.25 4.21875 26.25Z" fill="#EF5735"/>
<path d="M4.21872 19.6875C3.4629 19.6865 2.73015 19.9478 2.14544 20.4267C1.63444 21.0568 1.37499 21.8539 1.41716 22.6641C1.45933 23.4742 1.80013 24.24 2.37378 24.8137C2.94743 25.3873 3.71325 25.7281 4.52341 25.7703C5.33358 25.8125 6.13064 25.553 6.76075 25.042C7.15284 24.5611 7.40051 23.9788 7.47502 23.3627C7.54952 22.7467 7.44781 22.1221 7.18168 21.5615C6.91554 21.001 6.49591 20.5273 5.97146 20.1956C5.44702 19.8639 4.83926 19.6877 4.21872 19.6875Z" fill="#F58B8E"/>
<path d="M5.29359 24.7064L3.88734 23.3002C3.79943 23.2123 3.75003 23.0931 3.75 22.9688V21.0938H4.6875V22.7747L5.95641 24.0436L5.29359 24.7064Z" fill="white"/>
<path d="M12.5157 21.0938H12.3282C11.9189 21.0942 11.5159 20.9934 11.155 20.8003C10.7942 20.6072 10.4867 20.3278 10.26 19.987L9.92114 19.4789L10.7011 18.9586L11.04 19.4667C11.1811 19.6791 11.3726 19.8532 11.5974 19.9735C11.8221 20.0939 12.0732 20.1566 12.3282 20.1562H12.5157C12.9259 20.1562 13.3194 19.9933 13.6095 19.7032C13.8996 19.4131 14.0625 19.0196 14.0625 18.6094V17.4145C14.062 17.1743 14.0058 16.9375 13.8984 16.7226C13.7909 16.5077 13.6352 16.3207 13.4433 16.1761L12.375 15.375C12.3248 15.3373 12.2826 15.2899 12.251 15.2357C12.2194 15.1814 12.1991 15.1213 12.1912 15.059C12.1833 14.9967 12.1879 14.9334 12.205 14.873C12.222 14.8125 12.251 14.7561 12.2902 14.707L13.5558 13.125H10.3125V12.1875H14.5313C14.6196 12.1875 14.7062 12.2124 14.7809 12.2594C14.8557 12.3064 14.9157 12.3736 14.954 12.4532C14.9922 12.5328 15.0072 12.6216 14.9972 12.7094C14.9872 12.7971 14.9526 12.8803 14.8974 12.9492L13.3252 14.9152L14.0063 15.4266C14.3142 15.6587 14.5641 15.959 14.7365 16.3039C14.9089 16.6488 14.9991 17.0289 15 17.4145V18.6094C15 19.2683 14.7383 19.9002 14.2724 20.3661C13.8065 20.832 13.1746 21.0938 12.5157 21.0938Z" fill="black"/>
<path d="M19.5 19.0311L18.5 18.9999V13.4999L17.6628 14.2062L17 13.5434L18.6998 12.1685C18.7654 12.103 18.8489 12.0584 18.9398 12.0403C19.0307 12.0222 19.125 12.0315 19.2106 12.067C19.2963 12.1024 19.3695 12.1625 19.421 12.2396C19.4725 12.3166 19.5 12.4072 19.5 12.4999V19.0311Z" fill="black"/>
<path d="M25.7813 5.625H1.89893C1.96846 7.05229 2.19739 8.46734 2.58143 9.84375H29.0625V5.625H25.7813Z" fill="#EF5735"/>
<path d="M7.03125 4.6875C7.03125 3.91085 6.40165 3.28125 5.625 3.28125C4.84835 3.28125 4.21875 3.91085 4.21875 4.6875V6.5625C4.21875 7.33915 4.84835 7.96875 5.625 7.96875C6.40165 7.96875 7.03125 7.33915 7.03125 6.5625V4.6875Z" fill="#4D4D4D"/>
<path d="M25.7812 4.6875C25.7812 3.91085 25.1517 3.28125 24.375 3.28125C23.5983 3.28125 22.9688 3.91085 22.9688 4.6875V6.5625C22.9688 7.33915 23.5983 7.96875 24.375 7.96875C25.1517 7.96875 25.7812 7.33915 25.7812 6.5625V4.6875Z" fill="#4D4D4D"/>
<path d="M19 19V21" stroke="black" stroke-linecap="square"/>
</svg>
