<svg width="69" height="76" viewBox="0 0 69 76" fill="none" xmlns="http://www.w3.org/2000/svg">
<path d="M40.5616 19.2572V21.2921C55.643 24.2683 67.0894 38.1202 67.0894 54.7167C67.0894 60.6847 65.6106 66.2982 63.0114 71.1778L61.0777 69.1592V54.5257L53.0595 46.1558V60.7893L50.491 58.1082V43.4746L42.4728 35.1048V49.7383L38.5094 45.6011V31.9199C38.5094 28.8646 37.5576 25.8996 35.8043 23.465V7.68485H40.561V4.96313H35.8043V0.526367H33.1969V4.96313H28.4397V7.68485H33.1969V23.4696C31.4449 25.9029 30.4912 28.8666 30.4912 31.9199V45.5998L26.5316 49.7331V35.0995L18.5097 43.4733V58.1069L15.9412 60.788V46.1545L7.92294 54.5244V69.1579L5.9892 71.1765C3.39062 66.2975 1.91118 60.684 1.91118 54.7154C1.91118 38.1189 13.3576 24.267 28.439 21.2908V19.2559C12.2955 22.2523 0 37.0134 0 54.7147C0 61.2374 1.66616 67.3578 4.5862 72.6397C5.1019 73.577 5.66022 74.4908 6.26052 75.3725H7.92294H8.62601H9.30652L15.9412 68.4469L18.5097 65.7657L26.5316 57.388L30.4912 53.2548L34.5003 49.0698L38.5094 53.2548L42.4728 57.3919L50.491 65.7657L53.0595 68.4469L59.6947 75.3725H60.3746H61.0777H62.7401C63.3404 74.4908 63.8981 73.577 64.4138 72.6397C67.3338 67.3578 69 61.2374 69 54.7147C69.0006 37.0147 56.7057 22.2576 40.5616 19.2572ZM20.6915 55.8293V49.9247C20.6915 48.385 21.3376 46.8969 22.5225 45.7234C23.7037 46.8962 24.3535 48.3843 24.3535 49.9247V52.0074L20.6915 55.8293ZM44.6515 49.9247C44.6515 48.385 45.2976 46.8969 46.4825 45.7234C47.6637 46.8962 48.3135 48.3843 48.3135 49.9247V55.8332L44.6521 52.0113L44.6515 49.9247Z" fill="#BF845D"/>
</svg>
