<svg width="125" height="181" viewBox="0 0 125 181" fill="none" xmlns="http://www.w3.org/2000/svg">
<path d="M71.731 28.636V31.747C95.799 36.297 114.066 57.474 114.066 82.847C114.066 91.971 111.706 100.553 107.558 108.013L104.472 104.927V82.555L91.676 69.759V92.131L87.577 88.032V65.66L74.781 52.864V75.236L68.456 68.911V47.995C68.456 43.324 66.937 38.791 64.139 35.069V10.944H71.73V6.783H64.139V0H59.978V6.783H52.386V10.944H59.978V35.076C57.182 38.796 55.66 43.327 55.66 47.995V68.909L49.341 75.228V52.856L36.539 65.658V88.03L32.44 92.129V69.757L19.644 82.553V104.925L16.558 108.011C12.411 100.552 10.05 91.97 10.05 82.845C10.05 57.472 28.317 36.295 52.385 31.745V28.634C26.622 33.215 7 55.782 7 82.844C7 92.816 9.65897 102.173 14.319 110.248C15.142 111.681 16.033 113.078 16.991 114.426H19.644H20.766H21.852L32.44 103.838L36.539 99.739L49.341 86.931L55.66 80.612L62.058 74.214L68.456 80.612L74.781 86.937L87.577 99.739L91.676 103.838L102.265 114.426H103.35H104.472H107.125C108.083 113.078 108.973 111.681 109.796 110.248C114.456 102.173 117.115 92.816 117.115 82.844C117.116 55.784 97.495 33.223 71.731 28.636ZM40.021 84.548V75.521C40.021 73.167 41.052 70.892 42.943 69.098C44.828 70.891 45.865 73.166 45.865 75.521V78.705L40.021 84.548ZM78.258 75.521C78.258 73.167 79.289 70.892 81.18 69.098C83.065 70.891 84.102 73.166 84.102 75.521V84.554L78.259 78.711L78.258 75.521Z" fill="#BF845D"/>
<path d="M62.058 92.1079C58.287 95.6919 56.215 100.247 56.215 104.957V114.426H67.9V104.957C67.901 100.248 65.83 95.6919 62.058 92.1079Z" fill="#BF845D"/>
<path d="M13.567 154.681C10.9343 154.681 8.70498 154.172 6.87906 153.153C5.05314 152.112 3.68369 150.743 2.77073 149.044C1.879 147.325 1.43314 145.456 1.43314 143.439C1.43314 141.444 1.90023 139.596 2.83443 137.898C3.78985 136.199 5.20176 134.84 7.07015 133.821C8.93853 132.802 11.1891 132.293 13.8218 132.293C16.2847 132.293 18.4503 132.77 20.3187 133.726L19.1722 137.739C18.3866 137.335 17.5692 137.017 16.7199 136.783C15.8707 136.528 14.9046 136.401 13.8218 136.401C12.4418 136.401 11.2422 136.719 10.223 137.356C9.22516 137.972 8.46082 138.821 7.93003 139.904C7.42047 140.966 7.16569 142.155 7.16569 143.471C7.16569 145.552 7.71771 147.261 8.82176 148.599C9.9258 149.915 11.5076 150.573 13.567 150.573C15.3293 150.573 17.2295 150.138 19.2677 149.267L20.3506 153.185C19.4801 153.631 18.4397 153.991 17.2295 154.267C16.0193 154.543 14.7985 154.681 13.567 154.681ZM34.9571 135.828C37.3138 135.828 38.938 136.454 39.8298 137.707C40.7427 138.959 41.1992 140.764 41.1992 143.121V154.299H35.6578V143.821C35.6578 142.335 35.4773 141.306 35.1163 140.732C34.7766 140.159 34.1078 139.872 33.11 139.872C32.0271 139.872 30.9231 140.233 29.7978 140.955V154.299H24.2563V128.821H29.7978V137.229C31.56 136.295 33.2798 135.828 34.9571 135.828ZM62.904 136.21V154.299H58.7957L58.2225 152.802C56.1418 154.055 54.1354 154.681 52.2033 154.681C49.8466 154.681 48.2117 154.055 47.2988 152.802C46.407 151.55 45.9612 149.745 45.9612 147.388V136.21H51.5026V146.688C51.5026 148.174 51.6725 149.204 52.0122 149.777C52.3731 150.35 53.0525 150.637 54.0504 150.637C55.1332 150.637 56.2373 150.276 57.3626 149.554V136.21H62.904ZM79.5133 141.178C78.4092 141.178 77.4007 141.242 76.4877 141.369C75.5748 141.497 74.5875 141.751 73.5259 142.134V154.299H67.9845V136.21H72.0928L72.9208 138.344C74.0249 137.452 75.1077 136.815 76.1693 136.433C77.2309 136.051 78.3455 135.86 79.5133 135.86V141.178ZM91.2548 154.681C89.1316 154.681 87.3588 154.278 85.9363 153.471C84.5137 152.643 83.4521 151.529 82.7515 150.127C82.0721 148.705 81.7324 147.091 81.7324 145.286C81.7324 143.545 82.0827 141.964 82.7833 140.541C83.484 139.119 84.5774 137.983 86.0636 137.134C87.5499 136.263 89.4395 135.828 91.7325 135.828C92.5605 135.828 93.4523 135.923 94.4077 136.114C95.3631 136.305 96.1381 136.55 96.7326 136.847L95.6816 140.669C94.2591 140.095 92.9427 139.809 91.7325 139.809C90.3312 139.809 89.2484 140.276 88.4841 141.21C87.7197 142.123 87.3375 143.471 87.3375 145.255C87.3375 147.038 87.6772 148.397 88.3567 149.331C89.0361 150.244 90.0021 150.701 91.2548 150.701C92.1041 150.701 92.879 150.573 93.5797 150.318C94.2803 150.064 95.0765 149.681 95.9682 149.172L97.465 152.675C96.7219 153.248 95.7984 153.726 94.6943 154.108C93.6115 154.49 92.465 154.681 91.2548 154.681ZM121.247 132.643V154.299H115.515V144.872H106.629V154.299H100.897V132.643H106.629V140.828H115.515V132.643H121.247Z" fill="#543826"/>
<path d="M27.8938 172.432C27.1765 172.432 26.5702 172.27 26.075 171.945C25.5797 171.612 25.2083 171.173 24.9606 170.626C24.7215 170.08 24.602 169.469 24.602 168.795C24.602 168.129 24.7258 167.518 24.9734 166.963C25.2296 166.408 25.6139 165.964 26.1262 165.631C26.6386 165.298 27.2747 165.131 28.0347 165.131C28.4531 165.131 28.8544 165.204 29.2387 165.349C29.6229 165.486 29.9389 165.682 30.1865 165.938L29.7638 166.745C29.5504 166.523 29.2899 166.348 28.9825 166.22C28.6751 166.083 28.3592 166.015 28.0347 166.015C27.3174 166.015 26.7581 166.271 26.3568 166.784C25.964 167.287 25.7676 167.954 25.7676 168.782C25.7676 169.619 25.9512 170.289 26.3183 170.793C26.6941 171.297 27.2192 171.548 27.8938 171.548C28.3122 171.548 28.6836 171.463 29.0081 171.292C29.3326 171.113 29.64 170.87 29.9303 170.562L30.3658 171.292C30.0755 171.625 29.7169 171.899 29.2899 172.112C28.8715 172.325 28.4061 172.432 27.8938 172.432ZM32.5364 163.249C32.34 163.249 32.1692 163.18 32.024 163.044C31.8789 162.898 31.8063 162.728 31.8063 162.531C31.8063 162.326 31.8789 162.151 32.024 162.006C32.1692 161.861 32.34 161.788 32.5364 161.788C32.7413 161.788 32.9164 161.861 33.0615 162.006C33.2067 162.151 33.2793 162.326 33.2793 162.531C33.2793 162.728 33.2067 162.898 33.0615 163.044C32.9164 163.18 32.7413 163.249 32.5364 163.249ZM31.9728 165.362H33.1127V172.202H31.9728V165.362ZM39.4535 171.945C39.0094 172.227 38.5312 172.368 38.0189 172.368C37.2845 172.368 36.7423 172.172 36.3922 171.779C36.0421 171.378 35.8671 170.806 35.8671 170.063V166.22H34.7784V165.733L35.9695 165.4L36.3154 163.748H37.007V165.362H39.0564V166.22H37.007V169.883C37.007 170.438 37.0967 170.844 37.276 171.1C37.4553 171.348 37.7457 171.472 38.147 171.472C38.3434 171.463 38.5227 171.433 38.6849 171.382C38.8557 171.331 39.0436 171.25 39.2485 171.139L39.4535 171.945ZM46.6356 165.362L43.664 173.149C43.3737 173.935 43.0151 174.503 42.5881 174.853C42.1612 175.203 41.6403 175.378 41.0255 175.378C40.6839 175.378 40.3765 175.327 40.1033 175.224L40.2442 174.328C40.5003 174.396 40.7352 174.43 40.9486 174.43C41.3756 174.43 41.7342 174.302 42.0246 174.046C42.3149 173.79 42.5881 173.32 42.8443 172.637L42.9468 172.343L40.2442 165.362H41.4226L43.4719 170.895L45.4829 165.362H46.6356ZM53.9361 172.432C53.2188 172.432 52.6125 172.27 52.1173 171.945C51.622 171.621 51.2506 171.186 51.0029 170.639C50.7638 170.084 50.6443 169.469 50.6443 168.795C50.6443 168.111 50.7638 167.492 51.0029 166.937C51.2506 166.382 51.622 165.943 52.1173 165.618C52.6125 165.294 53.2188 165.131 53.9361 165.131C54.6448 165.131 55.2468 165.298 55.7421 165.631C56.2373 165.964 56.6045 166.408 56.8436 166.963C57.0912 167.509 57.215 168.111 57.215 168.769C57.215 169.435 57.0912 170.046 56.8436 170.601C56.6045 171.156 56.2373 171.6 55.7421 171.933C55.2468 172.266 54.6448 172.432 53.9361 172.432ZM53.9233 171.548C54.6064 171.548 55.1315 171.301 55.4987 170.806C55.8659 170.302 56.0495 169.627 56.0495 168.782C56.0495 167.945 55.8659 167.275 55.4987 166.771C55.1315 166.267 54.6064 166.015 53.9233 166.015C53.2401 166.015 52.715 166.267 52.3478 166.771C51.9892 167.275 51.8099 167.945 51.8099 168.782C51.8099 169.627 51.9892 170.302 52.3478 170.806C52.715 171.301 53.2401 171.548 53.9233 171.548ZM60.7812 165.362H62.8306V166.22H60.7812V172.202H59.6413V166.22H58.5525V165.733L59.6413 165.426V164.734C59.6413 163.829 59.8334 163.138 60.2176 162.659C60.6104 162.173 61.2124 161.929 62.0236 161.929C62.2798 161.929 62.5573 161.963 62.8562 162.032L62.7153 162.89C62.5018 162.847 62.3054 162.826 62.1261 162.826C61.6565 162.826 61.3149 162.984 61.1014 163.3C60.8879 163.616 60.7812 164.102 60.7812 164.76V165.362ZM73.2227 166.22L71.7241 166.079C71.9802 166.463 72.1083 166.895 72.1083 167.373C72.1083 167.783 72.0144 168.163 71.8265 168.513C71.6387 168.854 71.3569 169.132 70.9812 169.345C70.6055 169.55 70.1444 169.653 69.5979 169.653C69.3332 169.653 69.0599 169.623 68.7781 169.563C68.5305 169.768 68.3512 169.943 68.2402 170.088C68.1377 170.225 68.0865 170.374 68.0865 170.537C68.0865 170.724 68.1548 170.861 68.2914 170.946C68.428 171.023 68.65 171.062 68.9574 171.062H71.1349C71.7582 171.062 72.2407 171.211 72.5822 171.51C72.9323 171.809 73.1074 172.21 73.1074 172.714C73.1074 173.201 72.9409 173.645 72.6079 174.046C72.2748 174.456 71.818 174.776 71.2373 175.007C70.6567 175.237 70.0077 175.353 69.2905 175.353C68.3512 175.353 67.6723 175.182 67.2539 174.84C66.844 174.507 66.6391 174.085 66.6391 173.572C66.6391 173.222 66.7288 172.915 66.9081 172.65C67.0874 172.385 67.3649 172.108 67.7406 171.817C67.2283 171.621 66.9721 171.271 66.9721 170.767C66.9721 170.511 67.0532 170.268 67.2155 170.037C67.3777 169.798 67.6467 169.529 68.0224 169.23C67.715 169.034 67.4802 168.773 67.3179 168.449C67.1557 168.124 67.0746 167.774 67.0746 167.398C67.0746 166.989 67.1685 166.613 67.3564 166.271C67.5442 165.921 67.826 165.644 68.2017 165.439C68.586 165.234 69.0514 165.131 69.5979 165.131C70.0419 165.131 70.4475 165.208 70.8147 165.362H73.2227V166.22ZM69.5851 168.807C70.012 168.807 70.3493 168.679 70.5969 168.423C70.8531 168.158 70.9812 167.813 70.9812 167.386C70.9812 166.967 70.8574 166.63 70.6097 166.374C70.3621 166.109 70.0205 165.977 69.5851 165.977C69.1581 165.977 68.8208 166.109 68.5732 166.374C68.3255 166.63 68.2017 166.967 68.2017 167.386C68.2017 167.813 68.3255 168.158 68.5732 168.423C68.8208 168.679 69.1581 168.807 69.5851 168.807ZM72.0315 172.868C72.0315 172.279 71.6728 171.984 70.9556 171.984H68.8422H68.6885C68.3725 172.24 68.1334 172.488 67.9712 172.727C67.8089 172.966 67.7278 173.222 67.7278 173.495C67.7278 173.845 67.8602 174.097 68.1249 174.251C68.3981 174.405 68.7867 174.482 69.2905 174.482C69.8028 174.482 70.2682 174.4 70.6866 174.238C71.105 174.085 71.4337 173.88 71.6728 173.623C71.9119 173.376 72.0315 173.124 72.0315 172.868ZM78.0975 166.207C77.6876 166.207 77.2948 166.28 76.9191 166.425C76.5519 166.562 76.1378 166.818 75.6767 167.194V172.202H74.5367V165.362H75.4205L75.6255 166.284C76.0439 165.866 76.4495 165.571 76.8423 165.4C77.2436 165.23 77.662 165.144 78.0975 165.144V166.207ZM85.339 172.189C85.0316 172.3 84.7242 172.36 84.4168 172.368C84.0752 172.368 83.7934 172.3 83.5714 172.163C83.358 172.027 83.2256 171.788 83.1744 171.446C82.3632 172.069 81.6117 172.381 80.9201 172.381C80.3821 172.381 79.9424 172.227 79.6008 171.92C79.2592 171.604 79.0885 171.211 79.0885 170.741C79.0885 170.306 79.208 169.947 79.4471 169.666C79.6862 169.375 80.0192 169.136 80.4462 168.948C80.8817 168.76 81.4666 168.56 82.2009 168.346L83.1488 168.077V167.578C83.1488 166.553 82.7602 166.041 81.9832 166.041C81.5562 166.041 81.1634 166.13 80.8048 166.31C80.4462 166.481 80.0406 166.805 79.588 167.283L79.1141 166.566C80.0704 165.61 81.0994 165.131 82.2009 165.131C82.9353 165.131 83.4647 165.323 83.7892 165.708C84.1222 166.092 84.2887 166.732 84.2887 167.629V170.972C84.2887 171.16 84.3229 171.297 84.3912 171.382C84.4595 171.459 84.5662 171.497 84.7114 171.497C84.8395 171.497 85.0231 171.454 85.2622 171.369L85.339 172.189ZM80.2284 170.652C80.2284 170.942 80.3138 171.156 80.4846 171.292C80.6554 171.429 80.8816 171.497 81.1634 171.497C81.4538 171.497 81.7526 171.425 82.06 171.279C82.376 171.134 82.7389 170.912 83.1488 170.613V168.833L82.4187 169.051C81.6075 169.298 81.0396 169.537 80.7151 169.768C80.3907 169.999 80.2284 170.293 80.2284 170.652ZM89.4721 172.432C88.7549 172.432 88.1486 172.27 87.6533 171.945C87.1581 171.612 86.7866 171.173 86.539 170.626C86.2999 170.08 86.1804 169.469 86.1804 168.795C86.1804 168.129 86.3042 167.518 86.5518 166.963C86.808 166.408 87.1922 165.964 87.7046 165.631C88.2169 165.298 88.8531 165.131 89.613 165.131C90.0315 165.131 90.4328 165.204 90.817 165.349C91.2013 165.486 91.5172 165.682 91.7649 165.938L91.3422 166.745C91.1287 166.523 90.8683 166.348 90.5609 166.22C90.2535 166.083 89.9375 166.015 89.613 166.015C88.8958 166.015 88.3365 166.271 87.9351 166.784C87.5423 167.287 87.3459 167.954 87.3459 168.782C87.3459 169.619 87.5295 170.289 87.8967 170.793C88.2724 171.297 88.7976 171.548 89.4721 171.548C89.8906 171.548 90.262 171.463 90.5865 171.292C90.911 171.113 91.2184 170.87 91.5087 170.562L91.9442 171.292C91.6539 171.625 91.2952 171.899 90.8683 172.112C90.4499 172.325 89.9845 172.432 89.4721 172.432ZM96.1641 171.548C96.591 171.548 96.9753 171.454 97.3169 171.267C97.6584 171.079 97.9872 170.823 98.3031 170.498L98.7386 171.215C98.397 171.6 98.0128 171.899 97.5858 172.112C97.1674 172.325 96.6892 172.432 96.1513 172.432C95.434 172.432 94.8277 172.27 94.3325 171.945C93.8458 171.612 93.4786 171.173 93.2309 170.626C92.9919 170.071 92.8723 169.461 92.8723 168.795C92.8723 168.111 92.9919 167.492 93.2309 166.937C93.4786 166.382 93.85 165.943 94.3453 165.618C94.8405 165.294 95.4425 165.131 96.1513 165.131C96.6465 165.131 97.0906 165.234 97.4834 165.439C97.8847 165.635 98.1964 165.925 98.4184 166.31C98.6404 166.694 98.7514 167.147 98.7514 167.667C98.7514 167.864 98.7215 168.12 98.6618 168.436H94.0379C94.0293 168.513 94.0251 168.624 94.0251 168.769C94.0251 169.614 94.2044 170.289 94.563 170.793C94.9302 171.297 95.4639 171.548 96.1641 171.548ZM96.1129 165.977C95.6091 165.977 95.1906 166.122 94.8576 166.412C94.5331 166.703 94.3026 167.1 94.166 167.603H97.6243V167.501C97.6243 167.006 97.4748 166.63 97.176 166.374C96.8856 166.109 96.5313 165.977 96.1129 165.977Z" fill="#BF845D"/>
</svg>
